<?xml version="1.0" standalone="no"?>
<!DOCTYPE svg PUBLIC "-//W3C//DTD SVG 20010904//EN"
 "http://www.w3.org/TR/2001/REC-SVG-20010904/DTD/svg10.dtd">
<svg version="1.0" xmlns="http://www.w3.org/2000/svg"
 width="920.000000pt" height="460.000000pt" viewBox="0 0 920.000000 460.000000"
 preserveAspectRatio="xMidYMid meet">

<g transform="translate(0.000000,460.000000) scale(0.100000,-0.100000)"
fill="#000000" stroke="none">
<path d="M1728 4193 c7 -3 16 -2 19 1 4 3 -2 6 -13 5 -11 0 -14 -3 -6 -6z"/>
<path d="M2028 4193 c7 -3 16 -2 19 1 4 3 -2 6 -13 5 -11 0 -14 -3 -6 -6z"/>
<path d="M5618 4193 c6 -2 18 -2 25 0 6 3 1 5 -13 5 -14 0 -19 -2 -12 -5z"/>
<path d="M5685 4191 c-3 -5 0 -13 5 -16 8 -5 5 -14 -7 -28 -18 -22 -18 -22 3
-4 20 16 34 14 34 -5 0 -5 -4 -7 -9 -3 -5 3 -13 0 -17 -6 -4 -8 -3 -9 4 -5 16
10 15 -6 0 -24 -11 -12 -10 -12 5 -1 16 13 25 2 10 -13 -5 -4 -8 -12 -8 -17 0
-5 -4 -8 -10 -6 -5 1 -9 6 -7 10 1 5 -2 6 -8 2 -8 -5 -8 -11 -1 -19 6 -7 7
-17 3 -22 -4 -5 3 0 16 10 23 20 31 9 10 -12 -9 -9 -9 -15 0 -24 19 -19 14
-32 -5 -17 -16 12 -17 12 -6 -2 7 -9 10 -19 6 -23 -9 -9 -13 -36 -5 -33 4 1 7
-2 7 -8 0 -5 -3 -9 -7 -8 -9 3 -4 -18 10 -44 8 -14 9 -24 2 -28 -10 -6 -11 -5
-14 14 0 5 -4 12 -8 16 -5 6 -3 -25 2 -32 2 -2 3 -11 5 -20 1 -10 7 -31 13
-46 16 -37 15 -42 -3 -27 -8 7 -13 16 -10 20 3 5 1 11 -4 14 -13 8 -8 -19 7
-36 8 -10 8 -18 1 -25 -8 -8 -8 -13 0 -17 8 -5 8 -13 0 -28 -8 -16 -8 -19 1
-13 8 5 11 3 8 -6 -3 -8 -11 -13 -18 -11 -11 3 -11 0 0 -12 7 -9 9 -16 5 -16
-4 0 -3 -6 4 -13 7 -9 7 -17 0 -24 -6 -6 -5 -10 5 -10 8 0 13 4 10 8 -2 4 0
10 6 14 5 3 10 -3 10 -14 0 -19 -7 -21 -62 -23 -35 0 2 -5 82 -9 165 -8 271
-34 405 -98 270 -128 474 -376 549 -666 19 -70 36 -243 30 -300 -2 -22 -6 -63
-9 -91 l-6 -50 -157 -46 c-86 -26 -183 -54 -214 -63 l-58 -16 -2 -267 -3 -267
-110 -55 c-336 -169 -714 -143 -1032 71 -39 27 -75 54 -78 59 -4 6 9 49 29 96
33 76 36 87 24 111 -23 49 -48 53 -155 26 -52 -13 -101 -23 -108 -21 -14 3
-575 552 -575 563 0 3 57 62 128 130 l127 123 81 -79 c88 -85 112 -95 155 -60
21 17 25 38 50 237 15 120 37 287 48 369 11 83 23 188 26 235 7 81 6 86 -16
107 -17 15 -40 22 -81 25 -31 1 -54 0 -52 -3 3 -6 -90 -17 -206 -25 -30 -2
-70 -6 -88 -9 -23 -4 -32 -3 -27 5 3 5 11 8 16 4 5 -3 8 0 7 7 -2 6 3 14 11
17 9 3 11 0 6 -9 -5 -8 4 -3 18 10 27 25 35 37 17 26 -5 -3 -10 -2 -10 3 0 17
13 22 27 10 11 -9 10 -15 -9 -37 l-23 -26 26 23 c22 19 36 54 20 49 -3 -1 -6
3 -6 8 0 6 3 9 7 8 5 -2 7 0 5 5 -1 4 3 8 8 10 6 1 10 -16 10 -37 0 -22 2 -42
6 -45 8 -8 5 77 -3 90 -8 12 0 24 14 24 5 0 7 -4 3 -9 -3 -5 -1 -12 4 -15 5
-4 8 2 6 11 -3 21 24 55 37 47 4 -3 7 0 6 8 -2 7 4 12 12 10 8 -2 12 0 8 4 -4
4 -2 14 4 23 15 20 -51 -39 -168 -152 -50 -48 -98 -87 -107 -87 -8 0 -105 -9
-214 -21 -220 -22 -246 -31 -251 -88 -3 -28 6 -42 77 -114 l80 -83 -134 -134
-135 -135 -153 150 c-184 181 -567 557 -616 604 -156 149 -343 266 -555 348
-95 36 -261 77 -276 68 -5 -3 -11 -1 -15 5 -3 5 -14 10 -23 9 -12 0 -10 -3 6
-10 13 -5 21 -13 17 -18 -3 -5 -1 -13 5 -16 6 -4 9 -1 8 6 -2 6 2 13 9 16 12
5 12 -14 -1 -35 -6 -11 -12 -10 -29 5 -12 10 -10 4 6 -13 15 -17 24 -34 20
-39 -5 -4 -2 -5 5 -1 9 6 10 11 2 21 -7 9 -6 16 5 25 13 11 14 7 11 -29 -2
-22 0 -43 5 -46 4 -3 6 -12 3 -20 -4 -8 -10 -12 -15 -9 -5 3 -7 9 -5 13 3 4 0
13 -5 21 -7 11 -8 8 -5 -12 2 -14 2 -29 -2 -32 -10 -11 -11 -37 -1 -30 5 3 7
9 4 14 -3 5 -1 11 4 14 18 12 23 -46 5 -66 -17 -17 -31 -58 -16 -43 4 4 8 11
8 16 3 22 5 23 14 9 5 -9 5 -19 -1 -26 -6 -7 -4 -15 5 -23 16 -13 11 -45 -5
-35 -5 3 -7 9 -4 14 3 4 -2 13 -9 19 -21 18 -15 -13 7 -37 19 -21 18 -55 -1
-74 -10 -10 -12 -8 -9 7 1 11 6 25 10 31 3 6 -3 20 -16 30 -12 11 -17 12 -11
4 12 -18 12 -79 0 -100 -5 -8 2 -5 16 8 13 12 28 19 31 15 10 -9 9 -25 -2 -19
-4 3 -19 -7 -32 -22 -13 -14 -17 -21 -8 -14 16 12 29 7 29 -10 0 -5 -6 -6 -13
-2 -6 4 -4 -2 5 -13 28 -31 21 -39 -9 -12 -27 23 -27 23 -8 1 31 -38 27 -142
-7 -142 -7 0 -7 4 1 14 9 10 7 16 -6 27 -15 11 -16 11 -6 -1 9 -10 10 -17 2
-27 -9 -10 -3 -17 27 -29 221 -92 266 -126 574 -429 146 -144 330 -324 408
-401 l144 -140 -405 -396 c-222 -217 -431 -413 -463 -435 -97 -66 -217 -122
-321 -150 -88 -24 -115 -27 -263 -27 -182 1 -246 13 -396 75 -207 86 -406 274
-511 484 -39 77 -80 203 -93 285 -22 142 -6 353 35 469 8 22 11 42 7 44 -4 3
-50 8 -102 11 -52 4 -198 17 -325 30 -155 16 -232 20 -237 13 -3 -6 -14 -51
-25 -101 -28 -142 -26 -483 5 -626 130 -597 523 -1051 1089 -1256 241 -87 536
-114 802 -75 243 37 476 125 670 255 134 90 160 114 600 546 215 212 395 386
399 388 4 1 86 -78 183 -175 l177 -178 132 -255 c73 -140 164 -316 202 -390
73 -141 96 -170 132 -170 39 0 62 28 101 120 21 51 43 94 49 96 6 2 84 -29
172 -70 276 -127 447 -171 705 -183 168 -7 324 9 479 49 63 16 125 32 137 35
20 5 22 1 25 -52 l3 -58 80 -22 c44 -13 159 -46 255 -75 96 -29 211 -62 255
-75 44 -12 159 -46 255 -75 238 -70 404 -119 472 -138 52 -15 61 -15 110 0 29
9 145 44 258 77 113 33 360 106 550 162 190 56 380 111 423 123 l77 21 0 691
0 691 -72 21 c-105 31 -408 120 -743 219 -159 47 -328 96 -375 109 -47 13
-106 31 -131 39 -46 16 -49 15 -178 -23 -72 -22 -133 -37 -136 -34 -3 3 -5 42
-5 86 0 149 -50 366 -126 547 -221 526 -697 905 -1256 999 -117 19 -300 26
-295 11 1 -3 -2 -7 -8 -8 -5 -2 -9 2 -7 7 3 13 -5 13 -13 1z m100 -10 c-3 -2
3 -14 12 -25 18 -21 18 -21 -4 -2 -23 19 -33 10 -13 -10 8 -8 6 -15 -5 -24 -8
-7 -15 -17 -15 -23 0 -6 12 0 28 14 l27 24 -27 -31 c-27 -29 -39 -72 -18 -59
6 4 8 10 5 14 -2 5 5 17 18 27 22 19 22 19 6 -1 -9 -11 -15 -28 -14 -38 2 -9
-1 -15 -6 -11 -5 3 -7 -5 -5 -18 2 -13 8 -22 14 -21 11 3 10 -22 -1 -33 -4 -4
-2 -13 4 -20 7 -8 7 -14 -1 -19 -6 -4 -10 -3 -9 2 3 19 -2 27 -10 14 -10 -16
-3 -43 9 -36 5 3 12 1 15 -5 4 -6 1 -9 -7 -8 -9 2 -13 -12 -14 -52 0 -30 -4
-66 -9 -80 -7 -22 -6 -23 8 -11 9 7 15 17 12 21 -3 5 -1 11 4 14 7 5 8 -22 1
-31 -2 -2 -3 -7 -4 -12 0 -5 -4 -13 -8 -17 -16 -15 -7 -26 10 -13 16 13 16 13
0 -7 -22 -26 -5 -51 21 -32 9 7 6 1 -6 -13 -22 -24 -22 -26 -5 -44 17 -19 16
-19 -4 -2 -20 16 -34 14 -34 -5 0 -5 4 -7 9 -3 5 3 13 0 17 -6 5 -8 3 -9 -6
-4 -10 6 -12 4 -7 -8 3 -9 1 -19 -5 -23 -6 -4 -8 -3 -5 2 3 6 2 16 -4 24 -7
12 -9 9 -10 -10 -1 -17 -6 -8 -14 25 -10 38 -13 43 -14 22 -1 -16 -5 -26 -10
-23 -10 6 -9 24 1 41 7 13 4 52 -5 61 -4 4 0 15 9 25 15 16 15 21 0 49 -10 21
-11 30 -3 27 6 -2 14 -14 17 -28 l6 -24 6 27 c3 16 -1 35 -8 45 -13 17 -14 17
-8 0 5 -13 2 -16 -10 -11 -15 6 -15 8 -2 23 14 15 14 20 2 37 -13 16 -13 21 0
35 13 14 13 18 -1 29 -14 12 -14 15 1 31 14 15 14 21 4 34 -10 12 -10 18 0 30
9 11 10 18 1 28 -6 8 -8 17 -4 21 11 11 12 65 1 72 -17 10 10 30 42 30 16 0
28 -2 25 -5z m-3514 -55 c0 -20 1 -21 9 -1 8 19 9 19 9 1 1 -20 1 -20 17 0 15
18 15 18 5 -2 -6 -12 -8 -24 -5 -27 3 -3 6 -20 6 -38 0 -19 5 -40 11 -47 5 -7
7 -15 3 -19 -3 -3 2 -16 11 -27 18 -21 18 -21 -4 -2 -27 22 -31 11 -6 -16 13
-15 14 -19 3 -16 -21 5 -20 -43 3 -68 10 -12 15 -24 10 -27 -5 -3 -9 -27 -8
-54 1 -36 5 -47 15 -45 11 3 10 -2 -3 -16 -9 -10 -15 -21 -12 -24 3 -3 -1 -11
-10 -18 -8 -7 -15 -17 -15 -23 0 -6 12 0 28 14 20 18 19 15 -5 -12 -18 -19
-33 -39 -33 -44 0 -5 15 4 33 21 17 16 26 22 20 15 -10 -12 -10 -18 0 -30 10
-14 10 -14 -5 -3 -20 16 -31 2 -34 -41 -2 -23 0 -26 11 -17 7 6 12 20 10 31
-2 11 0 17 5 14 10 -6 7 -29 -6 -46 -6 -8 -10 -26 -9 -41 1 -16 -2 -25 -8 -21
-7 4 -8 -1 -4 -13 6 -17 6 -17 -5 -3 -7 9 -21 15 -31 13 -17 -2 -44 32 -33 43
3 3 10 -5 15 -18 7 -19 9 -12 10 36 0 33 3 85 5 115 3 37 2 50 -5 40 -7 -11
-8 -6 -4 15 5 29 5 29 -6 5 -6 -14 -11 -40 -10 -58 1 -17 -3 -42 -10 -53 -8
-16 -8 -20 1 -14 8 5 10 -2 5 -26 -4 -19 -7 -44 -7 -57 0 -17 -3 -20 -12 -12
-7 5 -16 6 -21 2 -4 -4 -1 4 8 18 9 14 15 40 13 60 -2 19 1 41 7 48 6 8 6 17
-2 25 -6 8 -8 17 -4 20 3 4 0 13 -6 21 -8 10 -9 16 -1 21 5 3 10 -2 11 -12 0
-14 2 -13 10 6 5 13 6 29 1 35 -13 17 -6 87 9 97 16 9 28 1 13 -9 -6 -4 -10
-19 -9 -34 1 -15 -2 -25 -6 -23 -4 3 -5 -4 -2 -15 7 -28 13 -20 19 26 7 52 7
65 0 94 -5 21 -5 22 3 5 8 -17 10 -17 10 -3 1 9 -4 20 -9 23 -6 4 -10 29 -9
56 1 27 -1 52 -4 56 -4 3 -7 0 -8 -8 -4 -105 -3 -146 4 -142 4 2 7 -1 7 -6 0
-15 -15 -14 -29 3 -8 10 -9 16 -1 21 7 4 7 12 0 25 -7 13 -7 21 1 25 6 4 8 18
5 31 -4 14 -2 33 4 44 6 11 6 21 1 24 -5 3 -7 23 -6 43 2 21 0 43 -6 49 -7 8
-2 12 16 12 19 0 25 -6 26 -22z m65 -21 c-1 -13 -4 -27 -7 -30 -5 -4 -4 41 0
53 4 10 8 -2 7 -23z m29 6 c3 -5 2 -12 -3 -15 -5 -3 -9 1 -9 9 0 17 3 19 12 6z
m-14 -44 c-6 -8 -7 -18 -3 -22 4 -5 1 -5 -6 -1 -10 6 -10 11 -1 22 6 8 14 14
16 14 3 0 0 -6 -6 -13z m23 -16 c3 -5 -2 -15 -12 -22 -15 -12 -16 -12 -5 2 7
9 10 19 6 22 -3 4 -4 7 0 7 3 0 8 -4 11 -9z m-7 -78 c0 -9 -4 -10 -14 -2 -7 6
-13 12 -13 14 0 1 6 2 13 2 8 0 14 -6 14 -14z m-23 -75 c1 -7 5 -20 10 -28 7
-12 6 -13 -4 -3 -8 7 -15 23 -17 35 -2 12 -1 19 3 16 3 -3 6 -12 8 -20z m21
-107 c3 -5 2 -12 -3 -15 -5 -3 -9 1 -9 9 0 17 3 19 12 6z m3455 -85 c0 -2 -8
-10 -17 -17 -16 -13 -17 -12 -4 4 13 16 21 21 21 13z m-3550 -44 c0 -15 -4
-32 -8 -39 -4 -7 -7 8 -7 32 0 23 3 41 8 38 4 -2 7 -16 7 -31z m2220 -26 c0
-3 -4 -8 -10 -11 -5 -3 -10 -1 -10 4 0 6 5 11 10 11 6 0 10 -2 10 -4z m-2120
-70 c0 -2 -8 -10 -17 -17 -16 -13 -17 -12 -4 4 13 16 21 21 21 13z m-15 -45
c3 -5 2 -12 -3 -15 -5 -3 -9 1 -9 9 0 17 3 19 12 6z m4584 -1497 c14 -3 28 -7
33 -10 4 -3 18 -7 29 -9 34 -7 32 17 30 -264 -1 -124 -2 -133 -17 -115 -11 13
-17 15 -20 7 -8 -20 -22 -15 -30 9 -6 20 -7 20 -19 4 -12 -15 -14 -15 -34 11
-17 24 -20 25 -21 9 0 -11 -3 -16 -7 -12 -5 4 -8 93 -8 197 0 185 0 190 20
184 11 -3 31 -8 44 -11z"/>
<path d="M5735 4140 c2 -25 -1 -50 -8 -59 -9 -12 -9 -13 1 -7 15 9 16 -17 2
-44 -6 -10 -7 -21 -3 -23 5 -3 7 -40 6 -83 -1 -69 10 -114 28 -114 7 0 3 95
-5 108 -3 5 3 21 14 34 14 19 16 28 8 36 -24 24 -32 116 -12 133 10 9 11 15 3
25 -6 7 -8 18 -4 24 3 5 1 10 -4 10 -6 0 -11 -8 -12 -17 0 -15 -2 -15 -9 2 -6
14 -7 6 -5 -25z m17 -22 c-8 -8 -9 -4 -5 13 4 13 8 18 11 10 2 -7 -1 -18 -6
-23z m2 -104 c3 -11 7 -28 11 -39 5 -15 4 -17 -3 -6 -8 12 -11 10 -15 -10 -2
-13 -3 -9 -1 8 1 18 -1 35 -6 38 -5 3 -7 12 -3 21 7 18 12 14 17 -12z m-1
-141 c2 -24 1 -41 -2 -38 -4 2 -8 23 -10 47 -3 53 5 47 12 -9z"/>
<path d="M5741 3753 c-22 -82 -24 -88 -16 -81 4 4 11 22 15 40 8 31 8 32 9 6
1 -16 6 -28 12 -28 5 0 7 5 4 10 -4 6 -1 18 7 27 8 10 8 14 1 10 -18 -11 -24
8 -13 37 5 14 6 26 2 26 -4 0 -14 -21 -21 -47z"/>
<path d="M5738 3672 c-2 -9 -1 -30 3 -47 4 -16 7 -23 8 -15 0 8 10 21 21 28
22 14 19 26 -9 42 -15 7 -20 6 -23 -8z m22 -12 c-12 -8 -12 -10 -1 -10 8 0 12
-3 8 -6 -9 -9 -28 6 -22 17 4 5 12 9 18 9 7 0 6 -4 -3 -10z"/>
<path d="M2248 4122 c-4 -12 -2 -25 3 -28 6 -3 6 -12 0 -22 -7 -12 -5 -22 6
-35 11 -11 16 -33 14 -63 0 -26 3 -52 8 -58 5 -6 7 -29 5 -51 -3 -22 -5 -60
-4 -85 2 -97 1 -157 -2 -202 -2 -25 0 -55 4 -65 7 -15 8 -14 4 4 -2 13 0 26 5
29 5 3 9 2 8 -3 -4 -22 2 -44 10 -39 10 7 9 25 -1 42 -4 5 -5 19 -4 30 2 10
-1 25 -7 32 -6 8 -6 16 2 25 6 8 8 17 4 20 -3 4 2 15 11 26 11 12 14 21 7 26
-11 6 -15 -1 -12 -18 1 -5 -3 -6 -9 -2 -8 5 -7 11 1 21 9 11 8 14 -2 14 -12 0
-12 2 -1 9 11 7 11 9 -2 14 -9 4 -15 14 -15 24 1 17 2 17 6 1 2 -10 9 -18 14
-18 5 0 12 0 17 0 14 0 8 66 -10 92 -10 14 -18 30 -18 35 0 4 9 -5 19 -20 10
-16 21 -25 25 -19 3 5 -3 17 -13 26 -17 16 -22 58 -8 72 4 4 2 13 -4 21 -9 10
-8 17 1 28 8 10 9 19 3 28 -6 6 -11 27 -11 44 -1 38 -9 56 -23 48 -5 -4 -13 4
-17 16 l-9 23 -5 -22z m38 -24 c5 4 6 3 2 -2 -4 -5 -3 -17 2 -27 6 -10 6 -20
1 -23 -5 -3 -7 -15 -4 -26 3 -11 10 -17 17 -13 6 4 5 -1 -3 -10 -7 -10 -12
-31 -9 -51 2 -19 0 -32 -4 -30 -5 3 -8 28 -7 55 2 33 -3 55 -14 67 -11 11 -13
22 -7 32 6 9 4 20 -3 30 -10 13 -10 13 4 3 9 -7 20 -9 25 -5z m19 -287 c2 -11
6 -25 10 -30 3 -5 1 -13 -5 -16 -6 -4 -10 -3 -9 2 3 19 -2 34 -10 29 -5 -4 -8
2 -6 11 2 10 4 22 4 27 1 15 11 1 16 -23z m-12 -221 c3 -11 2 -22 -2 -24 -4
-3 -8 6 -9 20 -2 29 4 31 11 4z"/>
<path d="M2267 4066 c-3 -8 -2 -18 3 -21 13 -8 20 9 11 24 -6 10 -10 9 -14 -3z"/>
<path d="M2316 3731 c-4 -5 -2 -12 3 -15 5 -4 12 -2 15 3 4 5 2 12 -3 15 -5 4
-12 2 -15 -3z"/>
<path d="M1648 4183 c7 -3 16 -2 19 1 4 3 -2 6 -13 5 -11 0 -14 -3 -6 -6z"/>
<path d="M5493 4183 c9 -2 23 -2 30 0 6 3 -1 5 -18 5 -16 0 -22 -2 -12 -5z"/>
<path d="M5428 4173 c7 -3 16 -2 19 1 4 3 -2 6 -13 5 -11 0 -14 -3 -6 -6z"/>
<path d="M2177 4075 c-4 -8 -3 -16 1 -19 4 -3 9 4 9 15 2 23 -3 25 -10 4z"/>
<path d="M2175 4031 c-3 -5 -2 -12 3 -15 5 -3 9 1 9 9 0 17 -3 19 -12 6z"/>
<path d="M2205 3960 c-4 -6 -10 -8 -14 -6 -4 3 -8 -1 -8 -9 0 -13 4 -12 19 2
18 16 22 23 14 23 -3 0 -8 -5 -11 -10z"/>
<path d="M438 3893 c7 -3 16 -2 19 1 4 3 -2 6 -13 5 -11 0 -14 -3 -6 -6z"/>
<path d="M4734 3878 c-19 -23 -19 -23 2 -5 11 9 24 14 29 10 4 -5 5 -2 1 5 -9
16 -10 16 -32 -10z"/>
<path d="M2165 3871 c-3 -5 -2 -12 3 -15 5 -3 9 1 9 9 0 17 -3 19 -12 6z"/>
<path d="M4684 3838 c-19 -23 -19 -23 2 -5 11 9 24 14 29 10 4 -5 5 -2 1 5 -9
16 -10 16 -32 -10z"/>
<path d="M4603 3685 c0 -8 4 -12 9 -9 5 3 6 10 3 15 -9 13 -12 11 -12 -6z"/>
<path d="M2176 3650 c6 -8 10 -27 9 -43 -1 -15 5 -33 14 -40 14 -10 14 -10 5
3 -6 8 -10 27 -9 43 1 15 -5 33 -14 40 -14 10 -14 10 -5 -3z"/>
<path d="M4589 3643 c-13 -16 -12 -17 4 -4 16 13 21 21 13 21 -2 0 -10 -8 -17
-17z"/>
<path d="M1828 3553 c23 -2 61 -2 85 0 23 2 4 4 -43 4 -47 0 -66 -2 -42 -4z"/>
<path d="M2028 3543 c7 -3 16 -2 19 1 4 3 -2 6 -13 5 -11 0 -14 -3 -6 -6z"/>
<path d="M2080 3540 c0 -5 5 -10 11 -10 5 0 7 5 4 10 -3 6 -8 10 -11 10 -2 0
-4 -4 -4 -10z"/>
<path d="M5345 3490 c-3 -6 1 -7 9 -4 18 7 21 14 7 14 -6 0 -13 -4 -16 -10z"/>
<path d="M5076 3333 c-6 -14 -5 -15 5 -6 7 7 10 15 7 18 -3 3 -9 -2 -12 -12z"/>
<path d="M120 3003 c0 -6 8 -17 18 -24 16 -13 16 -13 2 6 -8 11 -16 22 -17 24
-2 2 -3 0 -3 -6z"/>
</g>
</svg>
